#!OML:ASF H:\Terrain\Patient Classification 1\Walking\steve\steve.ASF
:FULLY-SPECIFIED
:DEGREES
231
root 7.5525 16.2664 10.9166 3.79455 0.455534 0.0553788
lowerback 1.32453 1.25075 2.57832
upperback -1.96936 1.79915 2.43703
thorax -2.76591 0.871444 0.993445
lowerneck -10.4866 -0.0076349 -1.42374
upperneck 13.424 0.699844 -3.1193
head 5.79468 0.0357963 -0.693137
rclavicle -2.09361e-014 -1.74931e-014
rhumerus -63.244 -36.0734 -46.3813
rradius 14.584
rwrist 28.668
rhand -15.4533 -39.3644
rfingers 7.12502
rthumb 10.7275 -69.0705
lclavicle -2.09361e-014 -1.74931e-014
lhumerus -27.9819 -12.1077 93.7056
lradius 54.017
lwrist 26.5782
lhand -27.367 -18.2923
lfingers 7.12502
lthumb -0.774569 11.686
rfemur -30.9243 1.50121 24.8665
rtibia 42.137
rfoot -14.5395 6.86225
rtoes -1.51489
lfemur -7.11127 4.19516 -20.0788
ltibia 62.9885
lfoot 7.87994 9.21705
ltoes 2.3024
232
root 7.54284 16.3059 11.1237 3.90917 0.230516 -0.0909531
lowerback 1.21862 1.38367 2.50949
upperback -2.06877 1.97565 2.5071
thorax -2.81354 0.961188 1.09913
lowerneck -10.3577 -0.0446162 -1.20623
upperneck 13.794 0.673345 -3.44882
head 5.89057 0.00455201 -0.836013
rclavicle 5.79892e-015 -1.03368e-014
rhumerus -60.6531 -35.7345 -49.1687
rradius 14.9578
rwrist 27.5963
rhand -15.4861 -40.1145
rfingers 7.12502
rthumb 10.6959 -69.8222
lclavicle 5.79892e-015 -1.03368e-014
lhumerus -28.5372 -11.6208 94.0934
lradius 51.939
lwrist 25.6512
lhand -26.9291 -17.9251
lfingers 7.12502
lthumb -0.351591 12.0544
rfemur -29.9029 1.86142 25.059
rtibia 41.5185
rfoot -15.061 6.95041
rtoes -0.778522
lfemur -9.20715 4.88169 -19.8007
ltibia 64.6497
lfoot 6.18583 8.51852
ltoes 0.913123
233
root 7.5327 16.3425 11.3251 4.03749 -0.0528256 -0.322695
lowerback 1.09026 1.53762 2.62895
upperback -2.10439 2.17988 2.51656
thorax -2.77451 1.06083 1.03817
lowerneck -10.398 -0.115262 -1.03117
upperneck 14.0725 0.602076 -3.72425
head 5.98563 -0.0468182 -0.958965
rclavicle -3.42096e-014 -1.51076e-014
rhumerus -57.4205 -34.9328 -52.9246
rradius 15.4683
rwrist 25.5751
rhand -15.4113 -40.2153
rfingers 7.12502
rthumb 10.768 -69.9193
lclavicle -3.42096e-014 -1.51076e-014
lhumerus -29.0672 -11.2117 94.3014
lradius 49.9036
lwrist 24.7433
lhand -26.7434 -17.8717
lfingers 7.12502
lthumb -0.172237 12.1079
rfemur -28.9241 2.47315 25.3155
rtibia 40.8962
rfoot -15.3404 6.90981
rtoes -0.665071
lfemur -11.2193 5.62223 -19.444
ltibia 65.9733
lfoot 3.9989 8.13675
ltoes -2.15311
234
root 7.53474 16.3852 11.5384 4.04271 -0.185926 -0.487067
lowerback 0.807059 1.66698 2.91601
upperback -2.04434 2.34169 2.46214
thorax -2.53966 1.13732 0.826604
lowerneck -10.4357 -0.220361 -1.02354
upperneck 14.3675 0.483711 -3.81136
head 6.08389 -0.115765 -0.999214
rclavicle -2.76839e-014 -2.38542e-015
rhumerus -54.8094 -34.7116 -55.5246
rradius 15.9563
rwrist 24.6341
rhand -16.1508 -39.4167
rfingers 7.12502
rthumb 10.0547 -69.1565
lclavicle -2.76839e-014 -2.38542e-015
lhumerus -29.6811 -10.8407 94.4925
lradius 47.792
lwrist 23.5689
lhand -26.7383 -18.237
lfingers 7.12502
lthumb -0.167316 11.7427
rfemur -27.6855 2.55539 25.5159
rtibia 40.298
rfoot -15.7601 7.06399
rtoes -1.65796
lfemur -12.9301 5.96935 -19.2693
ltibia 66.9307
lfoot 1.21112 8.15213
ltoes -5.7633
235
root 7.54336 16.418 11.7455 4.14453 -0.267766 -0.725198
lowerback 0.502188 1.77155 3.27094
upperback -2.05461 2.47321 2.48837
thorax -2.36484 1.19803 0.662333
lowerneck -10.1492 -0.273258 -1.03907
upperneck 14.4708 0.430912 -3.93266
head 6.06672 -0.150132 -1.03909
rclavicle 3.10601e-016 -3.18055e-015
rhumerus -52.5124 -34.3902 -57.6491
rradius 16.5338
rwrist 23.9263
rhand -16.9995 -38.6237
rfingers 7.12502
rthumb 9.2358 -68.4014
lclavicle 3.10601e-016 -3.18055e-015
lhumerus -30.2549 -10.2098 94.7427
lradius 45.5215
lwrist 22.3838
lhand -26.6158 -18.3706
lfingers 7.12502
lthumb -0.0489963 11.6091
rfemur -26.5876 2.35201 25.8034
rtibia 39.7199
rfoot -16.2297 7.31432
rtoes -3.04032
lfemur -14.7053 6.3013 -19.069
ltibia 67.6693
lfoot -1.02738 8.32899
ltoes -6.19522
236
root 7.54337 16.4411 11.9384 4.25292 -0.390962 -1.08779
lowerback 0.542587 1.87444 3.60379
upperback -2.24935 2.62874 2.56248
thorax -2.57641 1.2658 0.544883
lowerneck -9.78554 -0.349824 -1.07134
upperneck 14.7279 0.333906 -3.93744
head 6.08359 -0.199574 -1.04341
rclavicle 7.45443e-015 -1.74931e-014
rhumerus -50.5631 -34.3011 -59.2222
rradius 16.8911
rwrist 23.3679
rhand -17.201 -38.7779
rfingers 7.12502
rthumb 9.04143 -68.5641
lclavicle 7.45443e-015 -1.74931e-014
lhumerus -31.012 -9.40758 94.8683
lradius 43.403
lwrist 21.3444
lhand -26.3833 -17.9525
lfingers 7.12502
lthumb 0.175511 12.0272
rfemur -25.5834 2.40876 26.2347
rtibia 39.0858
rfoot -16.4741 7.57499
rtoes -2.89085
lfemur -16.5496 6.74324 -18.7243
ltibia 68.2246
lfoot -2.00163 8.29162
ltoes -5.47059
